<svg width="390" height="737" viewBox="0 0 390 737" fill="none" xmlns="http://www.w3.org/2000/svg">
<path d="M22 21.5C-8 20 -6.5 13.1667 -15.5 9V150.5H402.5C403.5 107.5 404.9 21.7 402.5 22.5C399.5 23.5 384 33.5 368.5 32C353 30.5 336.5 0 293.5 0C250.5 0 198.032 25 162.5 25C129 25 118 16 103.5 16C89 16 48.5 22.825 22 21.5Z" fill="#70BDF2"/>
<path d="M48 41.5C27.2 40.7 8.5 31.8333 -8 24V140.5C-8 150 409 150 409 150V33C406.667 38.1666 397.7 48.5 380.5 48.5C359 48.5 340 7.00001 283.5 10C227 13 213 34 184 38.5C154.355 43.1001 137.5 26.0714 106 28C78 29.7143 74 42.5 48 41.5Z" fill="#C1E3FF"/>
<path d="M57.5846 69.3581C35.5593 69.3581 0.685844 49.047 -16 35.4095V1389H419V59.7829C408.321 71.099 410.49 89.379 373.948 74.581C349.046 64.4965 346.917 18 287.849 18C228.781 18 225.277 53.6895 175.22 57.1714C145.686 59.2258 145.686 48.4667 114.15 48.4667C82.6133 48.4667 85.1162 69.3581 57.5846 69.3581Z" fill="#FAFAFA"/>
</svg>
